<?xml version="1.0" encoding="UTF-8" standalone="no"?>
<!-- Created with Inkscape (http://www.inkscape.org/) -->

<svg
   xmlns:dc="http://purl.org/dc/elements/1.1/"
   xmlns:cc="http://creativecommons.org/ns#"
   xmlns:rdf="http://www.w3.org/1999/02/22-rdf-syntax-ns#"
   xmlns:svg="http://www.w3.org/2000/svg"
   xmlns="http://www.w3.org/2000/svg"
   xmlns:sodipodi="http://sodipodi.sourceforge.net/DTD/sodipodi-0.dtd"
   xmlns:inkscape="http://www.inkscape.org/namespaces/inkscape"
   width="2000"
   height="2000"
   id="svg3201"
   version="1.1"
   inkscape:version="0.48.3.1 r9886"
   sodipodi:docname="New document 8">
  <defs
     id="defs3203" />
  <sodipodi:namedview
     id="base"
     pagecolor="#ffffff"
     bordercolor="#666666"
     borderopacity="1.0"
     inkscape:pageopacity="0.0"
     inkscape:pageshadow="2"
     inkscape:zoom="0.18"
     inkscape:cx="939.9858"
     inkscape:cy="1000.5893"
     inkscape:document-units="px"
     inkscape:current-layer="layer1"
     showgrid="false"
     showborder="true"
     inkscape:showpageshadow="false"
     borderlayer="false"
     width="2000px"
     inkscape:window-width="1024"
     inkscape:window-height="524"
     inkscape:window-x="0"
     inkscape:window-y="24"
     inkscape:window-maximized="1" />
  <metadata
     id="metadata3206">
    <rdf:RDF>
      <cc:Work
         rdf:about="">
        <dc:format>image/svg+xml</dc:format>
        <dc:type
           rdf:resource="http://purl.org/dc/dcmitype/StillImage" />
        <dc:title></dc:title>
      </cc:Work>
    </rdf:RDF>
  </metadata>
  <g
     inkscape:label="Layer 1"
     inkscape:groupmode="layer"
     id="layer1"
     transform="translate(0,947.6376)">
    <path
       inkscape:connector-curvature="0"
       sodipodi:nodetypes="aaaaaaaaaaaaaaaaaaaaaaaaaaaaaaaaaaaaa"
       d="m 1109.2087,-259.35822 c -4.5159,-26.21014 -0.7057,-54.02645 -9.0768,-79.27105 -4.1195,-12.42302 -11.0481,-24.15239 -19.7266,-33.94959 -9.2177,-10.40588 -20.1794,-20.46437 -33.2674,-25.14985 -20.0296,-7.17061 -43.1178,-7.66825 -63.77178,-2.56768 -19.4983,4.81515 -40.06547,14.13228 -52.15391,30.17089 -6.28915,8.34426 -6.40596,20.02894 -7.61564,30.40761 -5.05611,43.37995 12.7319,88.73931 1.74811,131.00916 -9.04637,34.81389 -36.97854,61.74852 -53.78655,93.55002 -15.80341,29.900738 -37.05977,58.271989 -44.18864,91.332259 -2.40875,11.17063 3.75226,23.20848956 0.88647,34.270687 -3.61966,13.9722 -10.20106,28.97829 -21.99572,37.29756 -9.8219,6.9278 -24.6377,1.49081 -35.40468,6.83275 -4.41987,2.19288 -9.28807,5.25809 -11.0254,9.87606 -5.89411,15.66705 6.60976,33.12255 6.04494,49.852114 -0.40367,11.95625 -13.15233,25.17331 -6.71336,35.2557 18.68785,29.26216 68.15733,14.17548 101.02699,25.36006 14.10522,4.79959 26.14226,16.61919 40.99339,17.81805 10.64192,0.85907 21.78269,-2.57606 31.04242,-7.89073 7.47555,-4.29062 10.24934,-14.96125 18.14163,-18.42608 38.99295,-17.11847 85.93123,-12.76121 127.68073,-4.36647 5.3003,1.06575 11.0551,2.81647 14.7356,6.77661 3.9057,4.20253 1.742,12.30846 6.029,16.12136 11.2064,9.96712 29.3786,15.21132 43.693,10.7364 17.1506,-5.36159 21.6057,-29.24668 35.7021,-40.3904 7.7685,-6.14129 17.3735,-9.51545 26.1994,-14.0065 18.5146,-9.42115 43.4268,-10.67637 56.1046,-27.13302 3.7541,-4.87328 5.5331,-12.2977 3.5303,-18.114214 -6.4956,-18.8646 -35.1678,-21.99528 -45.1931,-39.24525 -5.0944,-8.76567 -3.4031,-20.01508 -5.9593,-29.82612 -0.5005,-1.92098 -1.6794,-3.68751 -1.8311,-5.66682 -0.6652,-8.68482 3.9516,-17.0906374 4.1536,-25.7985574 0.4528,-19.5168796 -1.4391,-39.3685796 -6.6178,-58.1913096 -6.5334,-23.746921 -18.4606,-45.800419 -30.3802,-67.353279 -9.6593,-17.46593 -22.434,-33.02495 -33.1446,-49.86671 -9.7172,-15.27968 -21.3909,-29.64754 -28.2208,-46.41791 -4.263,-10.46768 -5.7197,-21.8974 -7.6389,-33.03575 z"
       style="fill:#000000;fill-opacity:1;stroke:#000000;stroke-width:2.56995702px;stroke-linecap:butt;stroke-linejoin:miter;stroke-opacity:1"
       id="path3590" />
    <text
       xml:space="preserve"
       style="font-size:144px;font-style:normal;font-variant:normal;font-weight:500;font-stretch:normal;line-height:125%;letter-spacing:0px;word-spacing:0px;fill:#000000;fill-opacity:1;stroke:none;font-family:Century Schoolbook L;-inkscape-font-specification:Century Schoolbook L Medium"
       x="494.44446"
       y="613.47351"
       id="text3486"
       sodipodi:linespacing="125%"><tspan
         sodipodi:role="line"
         id="tspan3488"
         x="494.44446"
         y="613.47351">Linux for Hank</tspan></text>
    <text
       xml:space="preserve"
       style="font-size:80px;font-style:normal;font-variant:normal;font-weight:500;font-stretch:normal;font-family:Century Schoolbook L;-inkscape-font-specification:Century Schoolbook L Medium"
       x="683.33331"
       y="807.91803"
       id="text3490"><tspan
         sodipodi:role="line"
         id="tspan3492"
         x="683.33331"
         y="807.91803">by Bryan Lunduke</tspan></text>
  </g>
</svg>
