<?xml version="1.0" encoding="UTF-8" standalone="no"?>
<!-- Created with Inkscape (http://www.inkscape.org/) -->

<svg
   xmlns:dc="http://purl.org/dc/elements/1.1/"
   xmlns:cc="http://creativecommons.org/ns#"
   xmlns:rdf="http://www.w3.org/1999/02/22-rdf-syntax-ns#"
   xmlns:svg="http://www.w3.org/2000/svg"
   xmlns="http://www.w3.org/2000/svg"
   xmlns:sodipodi="http://sodipodi.sourceforge.net/DTD/sodipodi-0.dtd"
   xmlns:inkscape="http://www.inkscape.org/namespaces/inkscape"
   width="2000"
   height="2000"
   id="svg3201"
   version="1.1"
   inkscape:version="0.48.3.1 r9886"
   sodipodi:docname="LinuxForHank-Page12.svg"
   inkscape:export-filename="/home/bryan/Desktop/LinuxForHankStuff/LinuxForHank-Page12.png"
   inkscape:export-xdpi="90"
   inkscape:export-ydpi="90">
  <defs
     id="defs3203" />
  <sodipodi:namedview
     id="base"
     pagecolor="#ffffff"
     bordercolor="#666666"
     borderopacity="1.0"
     inkscape:pageopacity="0.0"
     inkscape:pageshadow="2"
     inkscape:zoom="0.18"
     inkscape:cx="939.9858"
     inkscape:cy="1013.9179"
     inkscape:document-units="px"
     inkscape:current-layer="layer1"
     showgrid="false"
     showborder="true"
     inkscape:showpageshadow="false"
     borderlayer="false"
     width="2000px"
     inkscape:window-width="1024"
     inkscape:window-height="524"
     inkscape:window-x="0"
     inkscape:window-y="24"
     inkscape:window-maximized="1" />
  <metadata
     id="metadata3206">
    <rdf:RDF>
      <cc:Work
         rdf:about="">
        <dc:format>image/svg+xml</dc:format>
        <dc:type
           rdf:resource="http://purl.org/dc/dcmitype/StillImage" />
        <dc:title />
      </cc:Work>
    </rdf:RDF>
  </metadata>
  <g
     inkscape:label="Layer 1"
     inkscape:groupmode="layer"
     id="layer1"
     transform="translate(0,947.6376)">
    <text
       xml:space="preserve"
       style="font-size:56px;font-style:normal;font-variant:normal;font-weight:500;font-stretch:normal;font-family:Century Schoolbook L;-inkscape-font-specification:Century Schoolbook L Medium"
       x="133.33328"
       y="-753.19312"
       id="text3553"><tspan
         sodipodi:role="line"
         x="133.33328"
         y="-753.19312"
         id="tspan4547">&quot;Let me stop you right there!&quot; Hank said in delight.</tspan><tspan
         sodipodi:role="line"
         x="133.33328"
         y="-683.19312"
         id="tspan4578">&quot;I'll try them all!  I'll try every last byte!&quot;</tspan></text>
    <text
       xml:space="preserve"
       style="font-size:56px;font-style:normal;font-variant:normal;font-weight:500;font-stretch:normal;font-family:Century Schoolbook L;-inkscape-font-specification:Century Schoolbook L Medium"
       x="105.55551"
       y="463.47357"
       id="text3559"><tspan
         sodipodi:role="line"
         x="105.55551"
         y="463.47357"
         id="tspan4551">&quot;I'll try SUSE and Mint and Puppy and Gentoo!&quot;</tspan><tspan
         sodipodi:role="line"
         x="105.55551"
         y="533.47357"
         id="tspan4582">&quot;I'll try Slackware and CrunchBang, Fedora, Ubuntu!&quot;</tspan></text>
    <text
       xml:space="preserve"
       style="font-size:56px;font-style:normal;font-variant:normal;font-weight:500;font-stretch:normal;font-family:Century Schoolbook L;-inkscape-font-specification:Century Schoolbook L Medium"
       x="616.66675"
       y="657.91797"
       id="text3565"><tspan
         sodipodi:role="line"
         x="616.66675"
         y="657.91797"
         id="tspan4555">&quot;Then Debian and Puppy and Linux from Scratch!&quot;</tspan><tspan
         sodipodi:role="line"
         x="616.66675"
         y="727.91797"
         id="tspan4586">&quot;And on to Elementary, Sabayon and Arch!&quot;</tspan></text>
    <flowRoot
       xml:space="preserve"
       id="flowRoot3694"
       style="font-size:56px;-inkscape-font-specification:Century Schoolbook L Medium;font-family:Century Schoolbook L;font-weight:500;font-style:normal;font-stretch:normal;font-variant:normal"><flowRegion
         id="flowRegion3696"><rect
           id="rect3698"
           width="1361.1111"
           height="100"
           x="355.55554"
           y="433.33334" /></flowRegion><flowPara
         id="flowPara3700" /></flowRoot>    <path
       inkscape:connector-curvature="0"
       sodipodi:nodetypes="cccccccccccccccccccccccccccc"
       id="path3590-2"
       d="m 2780.8312,-148.85201 132.8874,1.01903 25.3807,-155.44057 12.3307,-57.21866 15.3098,60.48043 28.2601,122.31629 -35.4686,13.87174 0.4129,17.8227 122.0065,-1.60853 -12.9598,-152.90238 -8.0405,-164.63825 -13.3698,-136.92414 86.935,-56.94986 71.5594,-140.67501 -72.4456,-21.33386 -46.2902,75.06666 -51.5121,21.90358 -179.4094,-4.49208 -48.6024,-24.99194 -28.684,-77.60261 -85.6037,36.50978 51.4196,114.08889 84.7389,68.80665 -9.2074,159.3271 3.2572,143.58982 2.942,127.82607 -43.689,10.38826 -2.1577,21.76089 z"
       style="fill:#2b0000;fill-opacity:1;stroke:#000000;stroke-width:1.93793678px;stroke-linecap:butt;stroke-linejoin:miter;stroke-opacity:1" />
    <path
       transform="matrix(1.4274855,0.23631874,-0.34438011,2.0802318,2631.8136,-958.70552)"
       d="m 271.95122,59.679256 c 0,22.226095 -18.2908,40.243905 -40.85366,40.243905 -22.56285,0 -40.85365,-18.01781 -40.85365,-40.243905 0,-22.226094 18.2908,-40.243904 40.85365,-40.243904 22.56286,0 40.85366,18.01781 40.85366,40.243904 z"
       sodipodi:ry="40.243904"
       sodipodi:rx="40.853657"
       sodipodi:cy="59.679256"
       sodipodi:cx="231.09756"
       id="path3592-1"
       style="fill:#2b0000;fill-opacity:1"
       sodipodi:type="arc" />
    <path
       inkscape:connector-curvature="0"
       sodipodi:nodetypes="ccccccccccccccccccccccccc"
       id="path3590"
       d="m 915.12025,332.01296 106.40645,4.47373 20.1235,-195.35311 23.2775,-110.904426 36.6018,114.936326 41.4193,193.58567 86.5286,-1.98827 -28.8763,-189.00153 -48.5086,-176.187828 -10.0981,-228.712842 111.0485,-157.55849 80.8229,-143.62111 -39.3325,-56.44781 -81.3849,141.7305 -80.8613,100.46352 -147.84095,5.69692 -126.05343,-112.48545 -59.16133,-129.90131 -46.1719,46.16445 67.71315,153.99266 159.73026,152.12441 -8.33901,228.223151 -39.36511,167.847889 -17.67849,192.92295 -4e-5,0 z"
       style="fill:#000000;fill-opacity:1;stroke:#000000;stroke-width:2.39546967px;stroke-linecap:butt;stroke-linejoin:miter;stroke-opacity:1" />
    <path
       transform="matrix(2.0048764,0,0,1.9474555,583.27295,-577.96079)"
       d="m 271.95122,59.679256 c 0,22.226095 -18.2908,40.243905 -40.85366,40.243905 -22.56285,0 -40.85365,-18.01781 -40.85365,-40.243905 0,-22.226094 18.2908,-40.243904 40.85365,-40.243904 22.56286,0 40.85366,18.01781 40.85366,40.243904 z"
       sodipodi:ry="40.243904"
       sodipodi:rx="40.853657"
       sodipodi:cy="59.679256"
       sodipodi:cx="231.09756"
       id="path3592"
       style="fill:#000000;fill-opacity:1"
       sodipodi:type="arc" />
    <path
       inkscape:connector-curvature="0"
       sodipodi:nodetypes="ccccccccccccccccccc"
       id="path3590-5"
       d="m -742.87103,504.26307 96.3463,-81.71484 -97.4443,38.77203 -271.50037,-19.92875 -23.7272,-45.0141 -49.4615,-21.02999 -41.1207,28.62845 -52.2441,-7.6921 2.9193,49.14095 76.016,46.51272 57.8351,92.45998 -13.722,142.95605 39.5165,0.6906 29.82567,-139.82501 163.2734,2.20162 -7.8744,135.78762 39.6993,-0.0327 12.3329,-133.63268 39.3301,-88.2798 z"
       style="fill:#000000;fill-opacity:1;stroke:#000000;stroke-width:3.04557896px;stroke-linecap:butt;stroke-linejoin:miter;stroke-opacity:1" />
    <path
       inkscape:connector-curvature="0"
       sodipodi:nodetypes="aaaaaaaaaaaaaaaaaaaaaaaaaaaaaaaaaaaaa"
       d="m 2514.3756,-404.36598 c -3.8093,-22.10877 -0.5953,-45.57239 -7.6566,-66.86672 -3.4748,-10.47906 -9.3192,-20.37302 -16.6397,-28.63716 -7.7752,-8.77757 -17.0217,-17.2621 -28.0617,-21.2144 -16.8954,-6.04855 -36.3707,-6.46832 -53.7928,-2.16589 -16.4472,4.06167 -33.796,11.92087 -43.9928,25.44975 -5.3051,7.03855 -5.4036,16.89482 -6.424,25.64943 -4.2649,36.59186 10.7396,74.85339 1.4746,110.50885 -7.6308,29.36623 -31.1921,52.08612 -45.37,78.91132 -13.3305,25.22187 -31.2607,49.1536 -37.2741,77.04063 -2.0317,9.42262 3.1651,19.57675 0.7478,28.90794 -3.0532,11.78583 -8.6048,24.44378 -18.5538,31.46127 -8.285,5.84374 -20.7824,1.25752 -29.8646,5.76352 -3.7283,1.84976 -7.8347,4.43532 -9.3002,8.33069 -4.9717,13.21552 5.5755,27.93959 5.0992,42.05126 -0.3406,10.08538 -11.0944,21.23418 -5.663,29.73889 15.7636,24.68325 57.4921,11.95731 85.2184,21.39175 11.898,4.04856 22.0514,14.01864 34.5787,15.02985 8.9766,0.72467 18.3741,-2.17291 26.1849,-6.65597 6.3057,-3.61921 8.6455,-12.62016 15.3028,-15.54279 32.8914,-14.4398 72.4848,-10.76433 107.7013,-3.68323 4.4708,0.89902 9.3251,2.37578 12.4297,5.71628 3.2946,3.5449 1.4695,10.38239 5.0857,13.59864 9.4528,8.40746 24.7813,12.83105 36.8558,9.05639 14.467,-4.52262 18.2249,-24.67019 30.1155,-34.07013 6.5529,-5.18031 14.655,-8.02643 22.0997,-11.81476 15.6174,-7.94689 36.6314,-9.00576 47.3253,-22.88723 3.1668,-4.11073 4.6673,-10.37336 2.978,-15.2797 -5.4793,-15.91267 -29.6649,-18.55348 -38.1213,-33.1042 -4.2972,-7.39396 -2.8707,-16.88306 -5.0268,-25.15892 -0.4222,-1.6204 -1.4167,-3.11047 -1.5446,-4.78005 -0.5612,-7.32581 3.3333,-14.41627 3.5037,-21.76164 0.3819,-16.46281 -1.2139,-33.20813 -5.5823,-49.08549 -5.5111,-20.03101 -15.5719,-38.63358 -25.6263,-56.81385 -8.1479,-14.73286 -18.9235,-27.8572 -27.9581,-42.06356 -8.1966,-12.88873 -18.0437,-25.00831 -23.8048,-39.15445 -3.596,-8.8297 -4.8248,-18.47089 -6.4436,-27.86632 z"
       style="fill:#000000;fill-opacity:1;stroke:#000000;stroke-width:2.16781044px;stroke-linecap:butt;stroke-linejoin:miter;stroke-opacity:1"
       id="path3590-8" />
    <path
       inkscape:connector-curvature="0"
       sodipodi:nodetypes="ccccccccccccccccccccccc"
       id="path3590-7"
       d="m 2685.0645,480.72495 -240.3107,-11.39993 -6.232,146.77465 81.8902,-5.00427 -8.2759,78.59743 -148.0678,1.25441 9.4908,-241.01817 -94.4156,0.35685 4.8418,234.98004 -83.6892,7.35484 22.1144,74.34425 -26.6423,194.90096 65.5379,1.52981 53.3502,-187.9651 270.7885,4.87701 45.2074,179.02151 71.076,-0.0724 -43.0479,-174.24789 18.0722,-97.18849 -105.5556,-0.75291 -1.7598,-70.86252 103.9741,-0.65839 z"
       style="fill:#000000;fill-opacity:1;stroke:#000000;stroke-width:5.83758163px;stroke-linecap:butt;stroke-linejoin:miter;stroke-opacity:1" />
    <path
       inkscape:connector-curvature="0"
       sodipodi:nodetypes="cccccccccccccccccccccccc"
       id="path3590-3"
       d="m -1178.9804,18.467133 78.9341,3.3187 14.928,-144.916303 17.2675,-82.2709 27.1521,85.2618 30.7255,143.605203 64.18838,-1.4749 -21.4209,-140.204703 -35.98458,-130.6992 -7.4909,-169.66323 43.96369,52.14189 40.74885,112.41904 43.80905,-38.03255 -52.68997,-129.18715 -83.03272,-82.97177 -109.671,4.22609 -93.5086,-29.6641 -124.5563,-61.79048 19.5284,84.1838 88.6449,41.24786 106.9664,47.54479 -6.186,169.29991 -29.2017,124.5126 z"
       style="fill:#000000;fill-opacity:1;stroke:#000000;stroke-width:1.77700162px;stroke-linecap:butt;stroke-linejoin:miter;stroke-opacity:1" />
    <path
       transform="matrix(1.4872527,0,0,1.4446569,-1425.1506,-656.56747)"
       d="m 271.95122,59.679256 c 0,22.226095 -18.2908,40.243905 -40.85366,40.243905 -22.56285,0 -40.85365,-18.01781 -40.85365,-40.243905 0,-22.226094 18.2908,-40.243904 40.85365,-40.243904 22.56286,0 40.85366,18.01781 40.85366,40.243904 z"
       sodipodi:ry="40.243904"
       sodipodi:rx="40.853657"
       sodipodi:cy="59.679256"
       sodipodi:cx="231.09756"
       id="path3592-13"
       style="fill:#000000;fill-opacity:1"
       sodipodi:type="arc" />
    <path
       inkscape:connector-curvature="0"
       sodipodi:nodetypes="cccccccccccccccccccccccc"
       id="path3590-0"
       d="m 2945.7565,967.15381 75.2093,3.16207 14.2233,-138.07767 16.4529,-78.38852 25.8708,81.23828 29.2756,136.82848 61.1593,-1.40534 -20.41,-133.58836 -34.2866,-124.53151 -7.1375,-161.65671 41.8893,49.68127 38.8259,107.11396 41.7414,-36.23779 -50.2035,-123.09073 -79.1142,-79.0563 -104.4956,4.02665 -70.971,83.50574 -37.1165,92.16591 24.6485,53.02384 48.2119,-111.73912 32.4401,-39.28157 -5.8943,161.31062 -27.8237,118.63676 z"
       style="fill:#000000;fill-opacity:1;stroke:#000000;stroke-width:1.6931442px;stroke-linecap:butt;stroke-linejoin:miter;stroke-opacity:1" />
    <path
       transform="matrix(1.4170687,0,0,1.376483,2711.2032,323.97438)"
       d="m 271.95122,59.679256 c 0,22.226095 -18.2908,40.243905 -40.85366,40.243905 -22.56285,0 -40.85365,-18.01781 -40.85365,-40.243905 0,-22.226094 18.2908,-40.243904 40.85365,-40.243904 22.56286,0 40.85366,18.01781 40.85366,40.243904 z"
       sodipodi:ry="40.243904"
       sodipodi:rx="40.853657"
       sodipodi:cy="59.679256"
       sodipodi:cx="231.09756"
       id="path3592-4"
       style="fill:#000000;fill-opacity:1"
       sodipodi:type="arc" />
    <text
       xml:space="preserve"
       style="font-size:56px;font-style:normal;font-variant:normal;font-weight:500;font-stretch:normal;font-family:Century Schoolbook L;-inkscape-font-specification:Century Schoolbook L Medium"
       x="100.36755"
       y="860.00818"
       id="text3565-3"><tspan
         sodipodi:role="line"
         x="100.36755"
         y="860.00818"
         id="tspan4586-5">&quot;Glad I could help!&quot; in Stanley did chime.</tspan><tspan
         sodipodi:role="line"
         x="100.36755"
         y="930.00818"
         id="tspan4633">&quot;Let's order pizza!  It's install party time!&quot;</tspan></text>
  </g>
</svg>
