<?xml version="1.0" encoding="UTF-8" standalone="no"?>
<!-- Created with Inkscape (http://www.inkscape.org/) -->

<svg
   xmlns:dc="http://purl.org/dc/elements/1.1/"
   xmlns:cc="http://creativecommons.org/ns#"
   xmlns:rdf="http://www.w3.org/1999/02/22-rdf-syntax-ns#"
   xmlns:svg="http://www.w3.org/2000/svg"
   xmlns="http://www.w3.org/2000/svg"
   xmlns:sodipodi="http://sodipodi.sourceforge.net/DTD/sodipodi-0.dtd"
   xmlns:inkscape="http://www.inkscape.org/namespaces/inkscape"
   width="2000"
   height="2000"
   id="svg3201"
   version="1.1"
   inkscape:version="0.48.3.1 r9886"
   sodipodi:docname="LinuxForHank-Page06.svg"
   inkscape:export-filename="/home/bryan/Desktop/LinuxForHank-Page05.png"
   inkscape:export-xdpi="90"
   inkscape:export-ydpi="90">
  <defs
     id="defs3203" />
  <sodipodi:namedview
     id="base"
     pagecolor="#ffffff"
     bordercolor="#666666"
     borderopacity="1.0"
     inkscape:pageopacity="0.0"
     inkscape:pageshadow="2"
     inkscape:zoom="0.18"
     inkscape:cx="939.9858"
     inkscape:cy="963.33233"
     inkscape:document-units="px"
     inkscape:current-layer="layer1"
     showgrid="false"
     showborder="true"
     inkscape:showpageshadow="false"
     borderlayer="false"
     width="2000px"
     inkscape:window-width="1024"
     inkscape:window-height="524"
     inkscape:window-x="0"
     inkscape:window-y="24"
     inkscape:window-maximized="1" />
  <metadata
     id="metadata3206">
    <rdf:RDF>
      <cc:Work
         rdf:about="">
        <dc:format>image/svg+xml</dc:format>
        <dc:type
           rdf:resource="http://purl.org/dc/dcmitype/StillImage" />
        <dc:title></dc:title>
      </cc:Work>
    </rdf:RDF>
  </metadata>
  <g
     inkscape:label="Layer 1"
     inkscape:groupmode="layer"
     id="layer1"
     transform="translate(0,947.6376)">
    <text
       xml:space="preserve"
       style="font-size:56px;font-style:normal;font-variant:normal;font-weight:500;font-stretch:normal;font-family:Century Schoolbook L;-inkscape-font-specification:Century Schoolbook L Medium"
       x="144.44438"
       y="-764.30426"
       id="text3553"><tspan
         sodipodi:role="line"
         x="144.44438"
         y="-764.30426"
         id="tspan4181">&quot;No two types of Linux are quite the same.&quot;</tspan><tspan
         sodipodi:role="line"
         x="144.44438"
         y="-694.30426"
         id="tspan4251">&quot;I'll tell you my favorites, I'll tell you their names.&quot;</tspan></text>
    <text
       xml:space="preserve"
       style="font-size:56px;font-style:normal;font-variant:normal;font-weight:500;font-stretch:normal;font-family:Century Schoolbook L;-inkscape-font-specification:Century Schoolbook L Medium"
       x="277.77774"
       y="513.47351"
       id="text3559"><tspan
         sodipodi:role="line"
         x="277.77774"
         y="513.47351"
         id="tspan4185">&quot;There is good old Slackware, who's been around since the start.&quot;</tspan><tspan
         sodipodi:role="line"
         x="277.77774"
         y="583.47351"
         id="tspan4255">&quot;With Slackware your computer will never need to restart.&quot;</tspan></text>
    <text
       xml:space="preserve"
       style="font-size:56px;font-style:normal;font-variant:normal;font-weight:500;font-stretch:normal;font-family:Century Schoolbook L;-inkscape-font-specification:Century Schoolbook L Medium"
       x="122.22223"
       y="824.58466"
       id="text3565"><tspan
         sodipodi:role="line"
         x="122.22223"
         y="824.58466"
         id="tspan4189">&quot;Sounds great!&quot; said Hank, &quot;That's the one that I'll use!&quot;</tspan><tspan
         sodipodi:role="line"
         x="122.22223"
         y="894.58466"
         id="tspan4259">&quot;Whoah there!&quot; said Stanley, &quot;There's plenty more to choose!&quot;</tspan></text>
    <flowRoot
       xml:space="preserve"
       id="flowRoot3694"
       style="font-size:56px;-inkscape-font-specification:Century Schoolbook L Medium;font-family:Century Schoolbook L;font-weight:500;font-style:normal;font-stretch:normal;font-variant:normal"><flowRegion
         id="flowRegion3696"><rect
           id="rect3698"
           width="1361.1111"
           height="100"
           x="355.55554"
           y="433.33334" /></flowRegion><flowPara
         id="flowPara3700"></flowPara></flowRoot>    <path
       inkscape:connector-curvature="0"
       sodipodi:nodetypes="cccccccccccccccccccccccccccc"
       id="path3590-2"
       d="m 2583.882,-246.57991 53.8457,0.41291 10.2842,-62.98419 4.9964,-23.18488 6.2035,24.50654 11.4509,49.5623 -14.3718,5.6208 0.1673,7.22172 49.4368,-0.65177 -5.2513,-61.95572 -3.258,-66.71107 -5.4174,-55.48137 35.2259,-23.07596 28.9957,-57.00122 -29.3548,-8.64443 -18.7567,30.41685 -20.8726,8.87528 -72.6963,-1.82018 -19.6936,-10.12668 -11.6227,-31.44441 -34.6864,14.79368 20.8351,46.22858 34.336,27.88031 -3.7308,64.559 1.3198,58.18229 1.1921,51.79485 -17.7027,4.2093 -0.8743,8.81747 z"
       style="fill:#2b0000;fill-opacity:1;stroke:#000000;stroke-width:0.78524786px;stroke-linecap:butt;stroke-linejoin:miter;stroke-opacity:1" />
    <path
       transform="matrix(0.57841412,0.09575585,-0.13954209,0.8429055,2523.5004,-574.73083)"
       d="m 271.95122,59.679256 a 40.853657,40.243904 0 1 1 -81.70731,0 40.853657,40.243904 0 1 1 81.70731,0 z"
       sodipodi:ry="40.243904"
       sodipodi:rx="40.853657"
       sodipodi:cy="59.679256"
       sodipodi:cx="231.09756"
       id="path3592-1"
       style="fill:#2b0000;fill-opacity:1"
       sodipodi:type="arc" />
    <path
       inkscape:connector-curvature="0"
       sodipodi:nodetypes="ccccccccccccccccccccccccc"
       id="path3590"
       d="m -627.23596,-5.2616608 84.76205,3.56372 16.03012,-155.6158992 18.5425,-88.34512 29.15668,91.55688 32.99411,154.20797622 68.92753,-1.58383402 -23.00247,-150.5563022 -38.6414,-140.34908 -8.04399,-182.18985 88.45987,-125.50917 64.38255,-114.40682 -31.33179,-44.96564 -64.83022,112.90079 -64.4131,80.02801 -117.76827,4.5381 -100.41263,-89.60454 -47.12719,-103.4778 -36.77997,36.77404 53.93947,122.66867 127.23917,121.18045 -6.64275,181.79977 -31.35777,133.70559 -14.08247,153.6800592 -3e-5,0 z"
       style="fill:#000000;fill-opacity:1;stroke:#000000;stroke-width:1.90820181px;stroke-linecap:butt;stroke-linejoin:miter;stroke-opacity:1" />
    <path
       transform="matrix(1.5970601,0,0,1.5513193,-891.58147,-730.13564)"
       d="m 271.95122,59.679256 a 40.853657,40.243904 0 1 1 -81.70731,0 40.853657,40.243904 0 1 1 81.70731,0 z"
       sodipodi:ry="40.243904"
       sodipodi:rx="40.853657"
       sodipodi:cy="59.679256"
       sodipodi:cx="231.09756"
       id="path3592"
       style="fill:#000000;fill-opacity:1"
       sodipodi:type="arc" />
    <path
       inkscape:connector-curvature="0"
       sodipodi:nodetypes="ccccccccccccccccccc"
       id="path3590-5"
       d="m 2766.8574,628.33719 81.3001,-68.95359 -82.2266,32.71708 -229.1007,-16.81652 -20.0218,-37.98434 -41.7372,-17.74578 -34.699,24.15761 -44.0852,-6.49084 2.4634,41.4667 64.1447,39.24892 48.8031,78.02069 -11.579,120.63089 33.3453,0.58275 25.1678,-117.98882 137.7754,1.8578 -6.6447,114.58194 33.4995,-0.0276 10.4069,-112.76353 33.188,-74.49332 z"
       style="fill:#000000;fill-opacity:1;stroke:#000000;stroke-width:2.56995702px;stroke-linecap:butt;stroke-linejoin:miter;stroke-opacity:1" />
    <path
       inkscape:connector-curvature="0"
       sodipodi:nodetypes="aaaaaaaaaaaaaaaaaaaaaaaaaaaaaaaaaaaaa"
       d="m 609.03159,-331.59993 c -5.72136,-33.20658 -0.89408,-68.44807 -11.49986,-100.43138 -5.21914,-15.73917 -13.99724,-30.59954 -24.99234,-43.01197 -11.67812,-13.18359 -25.56602,-25.92705 -42.14756,-31.86326 -25.37635,-9.0847 -54.62751,-9.71518 -80.79494,-3.25308 -24.70298,6.10048 -50.76031,17.9047 -66.07554,38.22459 -7.96802,10.57165 -8.116,25.3754 -9.64861,38.52451 -6.40576,54.95964 16.13051,112.42706 2.21473,165.98027 -11.46109,44.107 -46.84941,78.23146 -68.14407,118.52194 -20.0219,37.88233 -46.95241,73.826913 -55.98427,115.71221 -3.05167,14.15244 4.75392,29.4035663 1.12314,43.41867 -4.58581,17.701893 -12.92402,36.713667 -27.86716,47.253691 -12.44372,8.777082 -31.2144,1.888749 -44.8555,8.656596 -5.59973,2.778265 -11.76743,6.661678 -13.96848,12.512391 -7.46745,19.849218 8.3742,41.964222 7.65863,63.159442 -0.51146,15.14787 -16.66325,31.89297 -8.50545,44.66673 23.67625,37.07334 86.35096,17.95945 127.99478,32.12963 17.87039,6.08079 33.12051,21.05547 51.93603,22.57427 13.48261,1.08843 27.5973,-3.26363 39.32875,-9.99701 9.47098,-5.43592 12.98521,-18.95502 22.98425,-23.3447 49.40165,-21.68805 108.86949,-16.16763 161.76345,-5.53208 6.71502,1.3503 14.00598,3.56833 18.66894,8.58565 4.9484,5.3243 2.20713,15.59396 7.63849,20.42466 14.19779,12.62768 37.22069,19.27175 55.35612,13.60234 21.72885,-6.79281 27.37317,-37.05371 45.23242,-51.17207 9.84219,-7.78064 22.01112,-12.05541 33.19297,-17.74534 23.45669,-11.93594 55.01887,-13.52632 71.08083,-34.37579 4.75633,-6.17416 7.01021,-15.5804 4.47279,-22.94954 -8.22964,-23.900246 -44.55549,-27.866644 -57.25678,-49.721296 -6.45428,-11.105458 -4.31164,-25.357732 -7.55005,-37.787771 -0.6341,-2.433785 -2.12782,-4.671828 -2.31989,-7.179475 -0.84289,-11.003089 5.00643,-21.6527083 5.26235,-32.6851903 0.57367,-24.7265437 -1.82325,-49.8773847 -8.38433,-73.7246237 -8.27753,-30.085834 -23.38841,-58.026214 -38.48979,-85.332324 -12.23784,-22.12822 -28.42245,-41.84051 -41.99209,-63.17795 -12.31108,-19.35839 -27.10091,-37.56156 -35.75396,-58.80855 -5.40108,-13.26188 -7.24663,-27.74261 -9.678,-41.85419 z"
       style="fill:#000000;fill-opacity:1;stroke:#000000;stroke-width:3.25597215px;stroke-linecap:butt;stroke-linejoin:miter;stroke-opacity:1"
       id="path3590-8" />
    <path
       inkscape:connector-curvature="0"
       sodipodi:nodetypes="ccccccccccccccccccccccc"
       id="path3590-7"
       d="m 1844.7288,-459.96765 -348.0983,-16.51319 -9.0274,212.60817 118.6209,-7.24887 -11.9879,113.85108 -214.4813,1.81706 13.7478,-349.12314 -136.7643,0.51691 7.0135,340.37671 -121.2268,10.65374 32.0334,107.690186 -38.5922,282.320774 94.934,2.21598 77.2796,-272.273929 392.2464,7.064517 65.4845,259.318832 102.956,-0.10491 -62.3563,-252.404075 26.1782,-140.780855 -152.9009,-1.09063 -2.5491,-102.6468 150.6099,-0.95371 z"
       style="fill:#000000;fill-opacity:1;stroke:#000000;stroke-width:8.45593834px;stroke-linecap:butt;stroke-linejoin:miter;stroke-opacity:1" />
  </g>
</svg>
