<?xml version="1.0" encoding="UTF-8" standalone="no"?>
<!-- Created with Inkscape (http://www.inkscape.org/) -->

<svg
   xmlns:dc="http://purl.org/dc/elements/1.1/"
   xmlns:cc="http://creativecommons.org/ns#"
   xmlns:rdf="http://www.w3.org/1999/02/22-rdf-syntax-ns#"
   xmlns:svg="http://www.w3.org/2000/svg"
   xmlns="http://www.w3.org/2000/svg"
   xmlns:sodipodi="http://sodipodi.sourceforge.net/DTD/sodipodi-0.dtd"
   xmlns:inkscape="http://www.inkscape.org/namespaces/inkscape"
   width="2000"
   height="2000"
   id="svg3201"
   version="1.1"
   inkscape:version="0.48.3.1 r9886"
   sodipodi:docname="LinuxForHank-Page04.svg"
   inkscape:export-filename="/home/bryan/Desktop/LinuxForHank-Page03.png"
   inkscape:export-xdpi="90"
   inkscape:export-ydpi="90">
  <defs
     id="defs3203" />
  <sodipodi:namedview
     id="base"
     pagecolor="#ffffff"
     bordercolor="#666666"
     borderopacity="1.0"
     inkscape:pageopacity="0.0"
     inkscape:pageshadow="2"
     inkscape:zoom="0.18"
     inkscape:cx="939.9858"
     inkscape:cy="963.33233"
     inkscape:document-units="px"
     inkscape:current-layer="layer1"
     showgrid="false"
     showborder="true"
     inkscape:showpageshadow="false"
     borderlayer="false"
     width="2000px"
     inkscape:window-width="1024"
     inkscape:window-height="524"
     inkscape:window-x="0"
     inkscape:window-y="24"
     inkscape:window-maximized="1" />
  <metadata
     id="metadata3206">
    <rdf:RDF>
      <cc:Work
         rdf:about="">
        <dc:format>image/svg+xml</dc:format>
        <dc:type
           rdf:resource="http://purl.org/dc/dcmitype/StillImage" />
        <dc:title />
      </cc:Work>
    </rdf:RDF>
  </metadata>
  <g
     inkscape:label="Layer 1"
     inkscape:groupmode="layer"
     id="layer1"
     transform="translate(0,947.6376)">
    <text
       xml:space="preserve"
       style="font-size:56px;font-style:normal;font-variant:normal;font-weight:500;font-stretch:normal;font-family:Century Schoolbook L;-inkscape-font-specification:Century Schoolbook L Medium"
       x="133.33333"
       y="-753.19318"
       id="text3553"><tspan
         sodipodi:role="line"
         x="133.33333"
         y="-753.19318"
         id="tspan3901">&quot;Linux?  What's that?&quot; asked Hank, all confused.</tspan><tspan
         sodipodi:role="line"
         x="133.33333"
         y="-683.19318"
         id="tspan4110">&quot;That doesn't sound like anything I've ever used.&quot;</tspan></text>
    <text
       xml:space="preserve"
       style="font-size:56px;font-style:normal;font-variant:normal;font-weight:500;font-stretch:normal;font-family:Century Schoolbook L;-inkscape-font-specification:Century Schoolbook L Medium"
       x="133.33327"
       y="-430.97095"
       id="text3559"><tspan
         sodipodi:role="line"
         x="133.33327"
         y="-430.97095"
         id="tspan3907">&quot;It helps make your computer be all it can be!&quot;</tspan><tspan
         sodipodi:role="line"
         x="133.33327"
         y="-360.97095"
         id="tspan4114">Stanley declared, &quot;and Linux is Free!&quot;</tspan></text>
    <text
       xml:space="preserve"
       style="font-size:56px;font-style:normal;font-variant:normal;font-weight:500;font-stretch:normal;font-family:Century Schoolbook L;-inkscape-font-specification:Century Schoolbook L Medium"
       x="861.11108"
       y="357.918"
       id="text3565"><tspan
         sodipodi:role="line"
         x="861.11108"
         y="357.918"
         id="tspan3911">&quot;It's fun, it's fast and it's built to share.&quot;</tspan><tspan
         sodipodi:role="line"
         x="861.11108"
         y="427.918"
         id="tspan4118">&quot;It's made by people, people that care!&quot;</tspan></text>
    <flowRoot
       xml:space="preserve"
       id="flowRoot3694"
       style="font-size:56px;-inkscape-font-specification:Century Schoolbook L Medium;font-family:Century Schoolbook L;font-weight:500;font-style:normal;font-stretch:normal;font-variant:normal"><flowRegion
         id="flowRegion3696"><rect
           id="rect3698"
           width="1361.1111"
           height="100"
           x="355.55554"
           y="433.33334" /></flowRegion><flowPara
         id="flowPara3700" /></flowRoot>    <path
       inkscape:connector-curvature="0"
       sodipodi:nodetypes="cccccccccccccccccccccccccccc"
       id="path3590-2"
       d="m 260.28837,893.64492 200.63753,1.53859 38.32066,-234.68891 18.61739,-86.39045 23.11494,91.31519 42.66778,184.67682 -53.55155,20.94397 0.62342,26.90925 L 714.92795,895.5208 695.36073,664.66413 683.22094,416.08827 663.03472,209.35605 794.29209,123.37141 902.33462,-89.024005 792.95401,-121.23448 723.06341,-7.896575 645.28882,25.174107 374.41128,18.391827 301.02991,-19.341761 257.7219,-136.50854 128.47506,-81.384954 206.10961,90.869931 334.05083,194.7563 l -13.90119,240.55692 4.91755,216.79628 4.44212,192.99565 -65.96325,15.68451 -3.25769,32.85526 z"
       style="fill:#2b0000;fill-opacity:1;stroke:#000000;stroke-width:2.92595601px;stroke-linecap:butt;stroke-linejoin:miter;stroke-opacity:1" />
    <path
       transform="matrix(2.1552612,0.3568012,-0.51995555,3.1407972,35.296982,-329.09651)"
       d="m 271.95122,59.679256 c 0,22.226095 -18.2908,40.243905 -40.85366,40.243905 -22.56285,0 -40.85365,-18.01781 -40.85365,-40.243905 0,-22.226094 18.2908,-40.243904 40.85365,-40.243904 22.56286,0 40.85366,18.01781 40.85366,40.243904 z"
       sodipodi:ry="40.243904"
       sodipodi:rx="40.853657"
       sodipodi:cy="59.679256"
       sodipodi:cx="231.09756"
       id="path3592-1"
       style="fill:#2b0000;fill-opacity:1"
       sodipodi:type="arc" />
    <path
       inkscape:connector-curvature="0"
       sodipodi:nodetypes="aaaaaaaaaaaaaaaaaaaaaaaaaaaaaaaaaaaaa"
       d="m 1733.5675,-654.58095 c -3.975,-23.07007 -0.6212,-47.5539 -7.9894,-69.77411 -3.626,-10.9347 -9.7245,-21.25885 -17.3633,-29.88231 -8.1134,-9.15922 -17.7619,-18.01267 -29.2819,-22.13681 -17.63,-6.31155 -37.9521,-6.74957 -56.1317,-2.26007 -17.1623,4.23828 -35.2655,12.43919 -45.9057,26.55632 -5.5356,7.34459 -5.6385,17.6294 -6.7032,26.76467 -4.4504,38.18289 11.2066,78.10804 1.5387,115.31382 -7.9627,30.64308 -32.5485,54.35085 -47.3428,82.34242 -13.9101,26.31853 -32.6198,51.29081 -38.8947,80.39035 -2.1202,9.83235 3.3028,20.42803 0.7803,30.16494 -3.186,12.29828 -8.979,25.50658 -19.3606,32.82918 -8.6452,6.09782 -21.686,1.3122 -31.163,6.01416 -3.8904,1.93017 -8.1754,4.62815 -9.7045,8.69288 -5.188,13.79008 5.8178,29.15435 5.3207,43.87965 -0.3554,10.52385 -11.5767,22.15747 -5.9092,31.03195 16.4491,25.75645 59.992,12.47721 88.9237,22.32184 12.4153,4.22458 23.0103,14.62815 36.0822,15.68339 9.367,0.75615 19.1731,-2.26744 27.3234,-6.9454 6.58,-3.77659 9.0215,-13.16884 15.9683,-16.21857 34.3214,-15.06762 75.6363,-11.23237 112.3841,-3.84335 4.6653,0.93807 9.7307,2.47905 12.9702,5.96475 3.4378,3.69905 1.5334,10.83386 5.3067,14.18996 9.864,8.77303 25.859,13.38896 38.4585,9.45015 15.096,-4.71926 19.0172,-25.74283 31.4248,-35.5515 6.8379,-5.40554 15.2921,-8.37546 23.0607,-12.32847 16.2965,-8.29246 38.2241,-9.39731 49.383,-23.88239 3.3044,-4.28945 4.8703,-10.8244 3.1074,-15.94407 -5.7174,-16.60456 -30.9546,-19.36017 -39.7788,-34.54353 -4.4841,-7.71552 -2.9954,-17.61721 -5.2454,-26.25285 -0.4404,-1.69084 -1.4782,-3.24573 -1.6117,-4.98791 -0.5855,-7.64435 3.4782,-15.04312 3.656,-22.70781 0.3985,-17.17869 -1.2667,-34.65209 -5.825,-51.21979 -5.7506,-20.90196 -16.2489,-40.31337 -26.7405,-59.28413 -8.5021,-15.37345 -19.7464,-29.06845 -29.1738,-43.89251 -8.553,-13.44913 -18.8282,-26.09567 -24.8398,-40.85689 -3.7523,-9.21362 -5.0345,-19.27402 -6.7237,-29.07796 z"
       style="fill:#000000;fill-opacity:1;stroke:#000000;stroke-width:2.26206756px;stroke-linecap:butt;stroke-linejoin:miter;stroke-opacity:1"
       id="path3590-8" />
  </g>
</svg>
